<?xml version="1.0" encoding="utf-8"?>
<!-- Generator: Adobe Illustrator 16.0.0, SVG Export Plug-In . SVG Version: 6.00 Build 0)  -->
<!DOCTYPE svg PUBLIC "-//W3C//DTD SVG 1.1//EN" "http://www.w3.org/Graphics/SVG/1.1/DTD/svg11.dtd">
<svg version="1.1" id="Layer_1" xmlns="http://www.w3.org/2000/svg" xmlns:xlink="http://www.w3.org/1999/xlink" x="0px" y="0px"
	 width="280px" height="79px" viewBox="0 0 280 79" enable-background="new 0 0 280 79" xml:space="preserve">
<path fill-rule="evenodd" clip-rule="evenodd" fill="#64AA49" d="M78.999,21.306c0,1.497,0,2.993,0,4.489
	c0,5.417,0.007,10.832-0.003,16.248c-0.006,3.018-1.775,5.01-4.474,5.08c-2.835,0.078-4.801-1.801-4.817-4.914
	c-0.056-10.778-0.035-21.556-0.012-32.333c0.004-2.056,0.821-3.818,2.865-4.46c2.274-0.714,4.652-0.801,6.531,1.066
	c2.383,2.366,4.207,5.202,6.267,7.837c3.958,5.062,7.857,10.167,11.788,15.248c0.116,0.149,0.314,0.235,0.504,0.372
	c0.458-0.6,0.251-1.21,0.254-1.769c0.017-6.12-0.005-12.239,0.019-18.36c0.01-2.412,1.33-4.159,3.446-4.711
	c2.144-0.561,4.21,0.281,5.274,2.17c0.518,0.92,0.628,1.942,0.629,2.975c0.004,10.453,0.008,20.905-0.003,31.359
	c-0.002,2.758-0.969,4.428-3.273,5.207c-2.179,0.736-4.228,0.197-5.758-1.527c-3.301-3.715-6.167-7.782-9.225-11.695
	c-3.222-4.121-6.418-8.262-9.626-12.394C79.256,21.232,79.127,21.269,78.999,21.306z"/>
<path fill-rule="evenodd" clip-rule="evenodd" fill="#63A948" d="M41.837,47.77c-9.91-0.002-18.786-6.736-21.392-16.678
	c-2.462-9.396,0.367-17.225,7.522-23.601c1.694-1.51,3.648-2.118,5.82-1.048c1.861,0.917,2.802,2.721,2.611,4.811
	c-0.127,1.382-0.875,2.399-1.932,3.223c-3.042,2.375-4.865,5.475-5.323,9.302c-0.655,5.475,2.708,11.439,8.487,13.691
	c7.804,3.043,17.327-2.138,17.843-11.992c0.229-4.369-1.738-8.033-5.189-10.845c-2.364-1.926-2.756-4.835-1.05-6.999
	c1.668-2.116,4.709-2.322,7.094-0.372C69.873,18.34,66.815,38.803,51.832,45.66C48.72,47.084,45.532,47.838,41.837,47.77z"/>
<path fill-rule="evenodd" clip-rule="evenodd" fill="#F37227" d="M189.421,47.125c-1.8-0.066-3.138-1.217-3.975-2.996
	c-0.824-1.752-1.612-3.523-2.302-5.332c-0.394-1.034-0.989-1.355-2.067-1.345c-5.146,0.049-10.293,0.053-15.438-0.002
	c-1.108-0.012-1.655,0.397-2.05,1.389c-0.755,1.902-1.592,3.773-2.45,5.63c-0.97,2.096-3.528,3.221-5.56,2.502
	c-2.174-0.768-3.594-3.078-2.889-5.129c0.682-1.98,1.662-3.858,2.526-5.773c4.121-9.143,8.231-18.29,12.383-27.417
	c1.554-3.415,4.521-4.779,7.944-3.767c1.718,0.509,2.87,1.633,3.601,3.256c4.444,9.879,8.9,19.751,13.354,29.625
	c0.441,0.982,0.883,1.965,1.331,2.943C195.148,43.58,192.862,47.129,189.421,47.125z M173.355,15.932
	c-1.888,4.436-3.563,8.388-5.255,12.334c-0.344,0.801-0.092,1.044,0.736,1.037c3.031-0.026,6.063-0.026,9.092-0.001
	c0.873,0.007,1.056-0.316,0.711-1.067c-0.18-0.392-0.325-0.798-0.496-1.194C176.616,23.491,175.085,19.942,173.355,15.932z"/>
<path fill-rule="evenodd" clip-rule="evenodd" fill="#F37228" d="M134.439,4.587c4.69-0.007,9.107,0.924,13.089,3.557
	c2.546,1.684,3.451,4.296,2.109,6.47c-1.534,2.484-4.331,3.061-7.023,1.324c-2.117-1.366-4.284-2.473-6.848-2.702
	c-5.522-0.495-9.666,1.716-12.256,6.611c-2.89,5.459-1.16,13.13,3.685,16.835c3.789,2.897,10.961,3.138,15.602-0.608
	c1.334-1.077,2.805-1.798,4.646-1.146c3.367,1.192,4.168,4.976,1.498,7.35c-3.425,3.041-7.487,4.682-11.996,5.117
	c-6.56,0.631-12.58-0.799-17.62-5.27c-3.543-3.141-5.7-7.057-6.611-11.76c-1.273-6.569,0.075-12.501,4.136-17.708
	C121.272,6.989,127.342,4.585,134.439,4.587z"/>
<path fill-rule="evenodd" clip-rule="evenodd" fill="#F37329" d="M198.448,25.701c0-5.147,0-10.294,0.001-15.441
	c0-3.332,1.785-5.351,4.719-5.339c2.895,0.009,4.789,2.085,4.796,5.359c0.021,8.669,0.008,17.338,0.009,26.007
	c0,2.076,0,2.076,2.087,2.077c4.063,0,8.127-0.012,12.19,0.005c2.796,0.012,4.574,1.616,4.623,4.118
	c0.05,2.529-1.654,4.258-4.459,4.281c-6.283,0.055-12.57,0.063-18.854,0.002c-3.423-0.033-5.108-1.865-5.111-5.303
	C198.447,36.213,198.449,30.958,198.448,25.701z"/>
<path fill-rule="evenodd" clip-rule="evenodd" fill="#F37328" d="M230.325,26.055c0.001-5.307-0.023-10.614,0.007-15.92
	c0.022-3.789,2.663-5.906,6.158-5.01c2.02,0.519,3.222,2.156,3.225,4.474c0.011,8.989,0.049,17.979-0.035,26.966
	c-0.014,1.549,0.467,1.861,1.896,1.832c4.331-0.088,8.663-0.044,12.995-0.023c1.855,0.009,3.212,0.917,3.945,2.595
	c0.718,1.646,0.345,3.182-0.828,4.518c-0.894,1.02-2.122,1.285-3.381,1.289c-6.444,0.027-12.89,0.045-19.333,0
	c-3.056-0.021-4.631-1.688-4.644-4.801C230.309,36.668,230.325,31.361,230.325,26.055z"/>
<path fill-rule="evenodd" clip-rule="evenodd" fill="#67AB4C" d="M45.852,12.137c0,2.438,0.016,4.875-0.005,7.313
	c-0.019,2.26-1.461,3.836-3.51,3.886c-2.04,0.049-3.588-1.637-3.594-3.952c-0.009-4.82-0.01-9.642,0.001-14.462
	c0.005-2.293,1.4-3.815,3.496-3.861c2.104-0.045,3.594,1.563,3.607,3.927C45.861,7.371,45.851,9.754,45.852,12.137z"/>
<path fill-rule="evenodd" clip-rule="evenodd" fill="#F5762C" d="M196.039,65.791c3.815-0.035,3.815-0.035,3.815,3.842
	c0.001,3.574-0.484,4.229-3.924,5.273c-4.595,1.4-9.135-0.402-10.894-4.326c-1.802-4.023-0.492-8.828,3.145-11.031
	c3.189-1.932,6.484-1.811,9.734-0.053c0.958,0.52,1.61,1.293,0.923,2.365c-0.643,1.006-1.539,0.672-2.417,0.156
	c-2.526-1.484-5.128-1.428-6.98,0.102c-1.875,1.547-2.593,4.32-1.764,6.818c1.139,3.439,5.867,4.961,8.771,2.82
	c1.062-0.781,0.537-1.908,0.514-2.863c-0.02-0.893-0.906-0.506-1.433-0.559c-0.59-0.063-1.19-0.01-1.787-0.023
	c-0.76-0.02-1.241-0.396-1.286-1.174c-0.043-0.781,0.427-1.252,1.147-1.33C194.405,65.723,195.227,65.791,196.039,65.791z"/>
<path fill-rule="evenodd" clip-rule="evenodd" fill="#F4762B" d="M245.822,73.479c0,1.463,0.014,2.703-0.006,3.941
	c-0.013,0.949-0.477,1.582-1.463,1.58c-0.986-0.006-1.436-0.631-1.436-1.592c-0.001-4.438,0.003-8.875-0.004-13.311
	c-0.001-0.871,0.335-1.525,1.229-1.633c1.171-0.141,1.625,0.627,1.77,1.943c1.417-1.676,3.062-2.361,5.078-2.035
	c1.404,0.227,2.538,0.898,3.439,1.967c2.113,2.51,1.976,6.904-0.275,9.271C251.954,75.93,249.058,75.943,245.822,73.479z
	 M252.982,68.838c0.008-2.242-1.563-4.039-3.551-4.064c-2.021-0.025-3.621,1.703-3.655,3.951c-0.036,2.363,1.502,4.104,3.629,4.104
	C251.465,72.828,252.974,71.146,252.982,68.838z"/>
<path fill-rule="evenodd" clip-rule="evenodd" fill="#F5762C" d="M212.001,68.82c0.01-3.676,2.874-6.496,6.629-6.531
	c3.726-0.033,6.686,2.816,6.711,6.459c0.026,3.678-3.001,6.65-6.748,6.627C214.858,75.354,211.991,72.502,212.001,68.82z
	 M214.912,68.768c-0.013,2.311,1.582,4.029,3.751,4.041c2.129,0.012,3.716-1.613,3.767-3.852c0.049-2.252-1.59-4.088-3.703-4.152
	C216.553,64.74,214.924,66.434,214.912,68.768z"/>
<path fill-rule="evenodd" clip-rule="evenodd" fill="#F5772D" d="M236.338,73.494c-0.284,0.273-0.438,0.42-0.595,0.566
	c-1.446,1.367-3.132,1.668-4.959,0.986c-1.854-0.693-2.612-2.242-2.694-4.082c-0.099-2.27-0.046-4.547-0.024-6.82
	c0.009-0.98,0.429-1.738,1.528-1.689c1.104,0.049,1.381,0.836,1.368,1.822c-0.021,1.732-0.039,3.467,0.005,5.197
	c0.052,2.139,0.939,3.168,2.648,3.189c1.781,0.021,2.807-1.105,2.842-3.193c0.027-1.732,0.016-3.465,0.003-5.195
	c-0.006-0.99,0.323-1.777,1.402-1.816c1.181-0.043,1.536,0.754,1.53,1.83c-0.021,2.924-0.013,5.848-0.005,8.771
	c0.004,0.891,0.038,1.818-1.089,2.061C237.149,75.369,236.609,74.68,236.338,73.494z"/>
<path fill-rule="evenodd" clip-rule="evenodd" fill="#F5762C" d="M206.261,64.676c0.739-0.992,1.269-1.775,2.166-2.113
	c0.88-0.334,1.788-0.361,2.2,0.668c0.396,0.99-0.103,1.617-1.078,1.984c-2.526,0.955-3.294,2.047-3.36,4.703
	c-0.028,1.189-0.012,2.381-0.007,3.572c0.002,1.029-0.438,1.691-1.527,1.66c-1.014-0.029-1.379-0.701-1.379-1.643
	c0.004-2.922,0.01-5.844-0.004-8.768c-0.003-1.068-0.034-2.207,1.404-2.281C205.983,62.391,206.177,63.43,206.261,64.676z"/>
</svg>
