<?xml version="1.0" encoding="utf-8"?>
<!-- Generator: Adobe Illustrator 16.0.0, SVG Export Plug-In . SVG Version: 6.00 Build 0)  -->
<!DOCTYPE svg PUBLIC "-//W3C//DTD SVG 1.1//EN" "http://www.w3.org/Graphics/SVG/1.1/DTD/svg11.dtd">
<svg version="1.1" id="Layer_1" xmlns="http://www.w3.org/2000/svg" xmlns:xlink="http://www.w3.org/1999/xlink" x="0px" y="0px"
	 width="150px" height="150px" viewBox="0 0 150 150" enable-background="new 0 0 150 150" xml:space="preserve">
<g>
	<g>
		<g>
			<defs>
				<rect id="SVGID_1_" x="28.145" y="28.141" width="93.711" height="93.719"/>
			</defs>
			<clipPath id="SVGID_2_">
				<use xlink:href="#SVGID_1_"  overflow="visible"/>
			</clipPath>
			<path clip-path="url(#SVGID_2_)" fill="#1E1E1E" d="M74.846,28.144c-12.48,0-24.212,4.854-33.028,13.672
				C33,50.631,28.146,62.36,28.146,74.843c0,25.923,20.95,47.013,46.7,47.013c12.539,0,24.324-4.814,33.188-13.56
				c8.916-8.795,13.826-20.565,13.826-33.142C121.859,49.231,100.77,28.144,74.846,28.144 M47.199,59.002
				c5.982-11.395,21.059-12.769,39.006-8.294c13.277,3.311,15.432-5.149,15.656-9.778c10.115,7.936,16.709,20.188,16.889,33.913
				c0,24.036-19.555,43.593-43.592,43.593S31.565,98.878,31.565,74.843c0-11.827,4.771-22.561,12.486-30.381
				C41.665,55.351,47.199,59.002,47.199,59.002"/>
		</g>
		<g>
			<defs>
				<rect id="SVGID_3_" x="28.145" y="28.141" width="93.711" height="93.719"/>
			</defs>
			<clipPath id="SVGID_4_">
				<use xlink:href="#SVGID_3_"  overflow="visible"/>
			</clipPath>
			<path clip-path="url(#SVGID_4_)" fill="#1E1E1E" d="M86.953,68.524h0.188c0.605,0,1.17-0.364,1.471-0.951
				c0.589-1.142,1.757-1.851,3.05-1.851c1.291,0,2.459,0.709,3.047,1.851c0.304,0.587,0.865,0.951,1.472,0.951h0.25
				c0.559,0,1.051-0.27,1.354-0.738c0.305-0.47,0.346-1.033,0.115-1.542c-1.084-2.395-3.533-3.943-6.236-3.943
				c-2.59,0-5.014,1.551-6.176,3.948c-0.238,0.49-0.205,1.039,0.088,1.508C85.873,68.237,86.391,68.524,86.953,68.524"/>
		</g>
		<g>
			<defs>
				<rect id="SVGID_5_" x="28.145" y="28.141" width="93.711" height="93.719"/>
			</defs>
			<clipPath id="SVGID_6_">
				<use xlink:href="#SVGID_5_"  overflow="visible"/>
			</clipPath>
			<path clip-path="url(#SVGID_6_)" fill="#1E1E1E" d="M53.411,68.524h0.413c0.605,0,1.171-0.365,1.475-0.954
				c0.588-1.14,1.756-1.848,3.047-1.848s2.458,0.708,3.046,1.848c0.303,0.589,0.868,0.954,1.475,0.954h0.187
				c0.575,0,1.084-0.277,1.396-0.76c0.313-0.481,0.356-1.056,0.122-1.577c-1.077-2.409-3.372-3.905-5.989-3.905
				c-0.166,0-0.334,0.006-0.502,0.018l-0.021,0.001h-0.023c-2.516,0-4.907,1.489-6.098,3.791c-0.27,0.522-0.249,1.135,0.058,1.637
				C52.296,68.227,52.827,68.524,53.411,68.524"/>
		</g>
		<g>
			<defs>
				<rect id="SVGID_7_" x="28.145" y="28.141" width="93.711" height="93.719"/>
			</defs>
			<clipPath id="SVGID_8_">
				<use xlink:href="#SVGID_7_"  overflow="visible"/>
			</clipPath>
			<path clip-path="url(#SVGID_8_)" fill="#1E1E1E" d="M58.721,94.066c-0.331-0.447-0.857-0.717-1.408-0.717
				c-0.313,0-0.622,0.088-0.891,0.254c-0.417,0.256-0.707,0.68-0.796,1.16c-0.089,0.479,0.023,0.95,0.316,1.332
				c4.623,6.024,11.515,9.479,18.902,9.479c7.39,0,14.279-3.455,18.904-9.479c0.293-0.382,0.403-0.854,0.315-1.332
				c-0.09-0.48-0.379-0.904-0.797-1.162l-0.02-0.013c-0.27-0.166-0.58-0.254-0.896-0.254c-0.543,0-1.061,0.263-1.387,0.699
				c-3.844,5.159-9.719,8.118-16.121,8.118C68.385,102.154,62.507,99.207,58.721,94.066"/>
		</g>
	</g>
</g>
</svg>
