<?xml version="1.0" encoding="utf-8"?>
<!-- Generator: Adobe Illustrator 16.0.0, SVG Export Plug-In . SVG Version: 6.00 Build 0)  -->
<!DOCTYPE svg PUBLIC "-//W3C//DTD SVG 1.1//EN" "http://www.w3.org/Graphics/SVG/1.1/DTD/svg11.dtd">
<svg version="1.1" id="Layer_1" xmlns="http://www.w3.org/2000/svg" xmlns:xlink="http://www.w3.org/1999/xlink" x="0px" y="0px"
	 width="95.108px" height="94.536px" viewBox="0 0 95.108 94.536" enable-background="new 0 0 95.108 94.536" xml:space="preserve">
<g display="none" opacity="0.5">
	<path display="inline" fill-rule="evenodd" clip-rule="evenodd" fill="#484848" d="M47.57-0.263
		c27.546-0.626,47.791,21.726,47.535,47.538c-0.26,26.123-20.577,46.129-46.093,46.943C21.025,95.111-0.011,72.359,0,46.776
		C0.01,21.728,20.553-1.235,47.57-0.263z M47.823,2.911C23.009,2.926,3.521,22.55,3.537,47.047
		C3.553,70.824,22.99,90.99,47.988,90.857c23.75-0.125,43.485-20.188,43.504-43.814C91.513,22.75,71.729,2.89,47.823,2.911z"/>
	<path display="inline" fill-rule="evenodd" clip-rule="evenodd" fill="#93CC95" d="M47.823,2.911
		C71.729,2.89,91.513,22.75,91.492,47.043c-0.02,23.627-19.755,43.689-43.504,43.814C22.99,90.99,3.553,70.824,3.537,47.047
		C3.521,22.55,23.009,2.926,47.823,2.911z M47.539,70.195c5.406-0.008,8.463-1.553,11.994-6.105c0.802-1.033,1.776-2.355,0.53-3.408
		c-1.436-1.211-2.351,0.064-3.271,1.26c-3.565,4.621-9.353,6.582-14.921,3.354c-1.701-0.988-2.678-2.506-3.765-3.967
		c-0.664-0.891-1.435-1.193-2.387-0.822c-1.15,0.453-0.905,1.41-0.685,2.359c0.195,0.838,0.57,1.531,1.148,2.168
		C39.229,68.391,42.813,70.539,47.539,70.195z M28.032,31.59c-2.803,0.037-4.238,1.533-4.157,4.333
		c0.074,2.591,1.746,4.167,4.458,4.208c2.43,0.035,4.154-1.832,4.174-4.521C32.527,32.994,30.923,31.553,28.032,31.59z
		 M71.938,35.865c0.035-2.485-2.114-4.559-4.842-4.666c-2.815-0.111-5.091,1.928-5.183,4.645c-0.089,2.633,2.207,4.816,5.05,4.797
		C69.897,40.624,71.897,38.705,71.938,35.865z"/>
	<path display="inline" fill-rule="evenodd" clip-rule="evenodd" fill="#484848" d="M47.539,70.193
		c-4.726,0.346-8.31-1.803-11.357-5.16c-0.578-0.637-0.953-1.33-1.148-2.168c-0.221-0.949-0.465-1.906,0.685-2.359
		c0.952-0.371,1.723-0.068,2.387,0.822c1.087,1.461,2.064,2.979,3.765,3.967c5.569,3.229,11.356,1.268,14.921-3.354
		c0.921-1.195,1.836-2.471,3.271-1.26c1.246,1.053,0.271,2.375-0.53,3.408C56.002,68.643,52.944,70.188,47.539,70.193z"/>
	<path display="inline" fill-rule="evenodd" clip-rule="evenodd" fill="#484848" d="M28.032,31.59
		c2.891-0.037,4.496,1.404,4.476,4.02c-0.021,2.69-1.744,4.557-4.174,4.521c-2.713-0.04-4.384-1.617-4.458-4.208
		C23.794,33.123,25.229,31.626,28.032,31.59z"/>
	<path display="inline" fill-rule="evenodd" clip-rule="evenodd" fill="#484848" d="M67.097,31.2
		c-2.815-0.111-5.091,1.928-5.183,4.645c-0.089,2.633,2.207,4.816,5.05,4.797c2.934-0.018,4.934-1.937,4.975-4.776
		C71.974,33.38,69.824,31.307,67.097,31.2z"/>
</g>
<g display="none" opacity="0.5">
	<path display="inline" fill-rule="evenodd" clip-rule="evenodd" fill="#484848" d="M0,46.35
		C0.491,20.206,21.059,0.901,44.974-0.232c29.853-1.415,50.541,22.427,50.127,47.796c-0.411,25.154-20.453,46.982-48.338,46.678
		C20.881,93.957-0.13,72.985,0,46.35z M47.609,2.888C22.895,2.72,3.126,22.79,3.146,47.011c0.02,23.997,19.405,43.333,42.993,43.932
		c26.786,0.681,44.447-20.273,45.588-41.513C93.164,22.708,71.736,2.821,47.609,2.888z"/>
	<path display="inline" fill-rule="evenodd" clip-rule="evenodd" fill="#E4912F" d="M47.609,2.888
		c24.126-0.067,45.554,19.82,44.118,46.542c-1.141,21.239-18.802,42.193-45.588,41.513C22.552,90.344,3.166,71.008,3.146,47.011
		C3.126,22.79,22.895,2.72,47.609,2.888z M38.609,63.446c0.002-0.078,0.004-0.154,0.005-0.231c-1.473,0.093-2.947,0.18-4.419,0.277
		c-0.999,0.063-1.476,0.629-1.559,1.597c-0.084,0.984,0.319,1.547,1.307,1.78c1.771,0.418,3.444,1.035,5.374,0.921
		c5.033-0.3,10.086-0.503,15.124-0.393c1.932,0.041,3.765,0.337,5.666-0.364c1.016-0.375,2.296-0.11,2.141-1.814
		c-0.151-1.662-1.267-1.784-2.569-1.78C52.655,63.452,45.631,63.446,38.609,63.446z M66.96,31.287
		c-3.066-0.312-4.504,1.919-4.757,4.806c-0.207,2.368,2.129,4.59,4.511,4.658c2.617,0.075,4.866-2.159,4.923-4.885
		C71.694,33.071,69.873,31.287,66.96,31.287z M23.576,35.839c-0.004,2.624,1.895,4.863,4.141,4.887
		c2.463,0.025,5.417-2.79,5.333-5.085c-0.089-2.452-2.362-4.362-5.156-4.333C25.06,31.337,23.579,32.891,23.576,35.839z"/>
	<path display="inline" fill-rule="evenodd" clip-rule="evenodd" fill="#484848" d="M38.609,63.446
		c7.022,0,14.046,0.006,21.07-0.008c1.302-0.004,2.418,0.118,2.569,1.78c0.155,1.704-1.125,1.439-2.141,1.814
		c-1.901,0.701-3.734,0.405-5.666,0.364c-5.038-0.11-10.091,0.093-15.124,0.393c-1.93,0.114-3.603-0.503-5.374-0.921
		c-0.988-0.233-1.392-0.796-1.307-1.78c0.083-0.968,0.56-1.533,1.559-1.597c1.472-0.098,2.947-0.185,4.419-0.277
		C38.613,63.292,38.611,63.368,38.609,63.446z"/>
	<path display="inline" fill-rule="evenodd" clip-rule="evenodd" fill="#484848" d="M66.96,31.287c2.913,0,4.733,1.784,4.677,4.579
		c-0.057,2.726-2.306,4.96-4.923,4.885c-2.382-0.068-4.718-2.29-4.511-4.658C62.456,33.206,63.894,30.975,66.96,31.287z"/>
	<path display="inline" fill-rule="evenodd" clip-rule="evenodd" fill="#484848" d="M23.576,35.839
		c0.003-2.948,1.483-4.501,4.319-4.532c2.793-0.029,5.066,1.882,5.156,4.333c0.084,2.295-2.87,5.111-5.333,5.085
		C25.471,40.702,23.572,38.463,23.576,35.839z"/>
</g>
<g opacity="0.5">
	<path fill-rule="evenodd" clip-rule="evenodd" fill="#484848" d="M46.564,94.026C20.654,93.968-1.585,72.454,0.089,43.63
		C1.478,19.712,22.156-1.923,50.351-0.16c23.86,1.493,45.746,21.423,43.755,50.859C92.512,74.285,72.578,94.447,46.564,94.026z
		 M90.653,47.385C90.828,21.926,70.437,2.859,46.116,3.147C24.462,3.403,2.648,21.734,3.583,48.626
		c0.775,22.285,20.145,42.605,44.292,42.063C71.153,90.167,90.37,70.826,90.653,47.385z"/>
	<path fill-rule="evenodd" clip-rule="evenodd" fill="#EF7252" d="M90.653,47.385c-0.283,23.441-19.5,42.782-42.778,43.305
		C23.727,91.231,4.358,70.911,3.583,48.626C2.648,21.734,24.462,3.403,46.116,3.147C70.437,2.859,90.828,21.926,90.653,47.385z
		 M27.398,40.064c3.042,0.063,4.906-1.346,5.005-3.779c0.122-2.945-1.343-4.692-3.979-4.749c-4.022-0.088-5.233,0.857-5.332,4.158
		C23.002,38.678,24.307,40.002,27.398,40.064z M62.242,35.808c-0.012,3.103,1.029,4.205,4.027,4.259
		c2.728,0.05,4.419-1.352,4.46-3.694c0.066-3.708-0.899-4.803-4.257-4.825C63.194,31.525,62.254,32.472,62.242,35.808z
		 M59.378,67.75c-0.172-0.363-0.427-1.051-0.804-1.664c-0.992-1.617-2.568-2.584-4.125-3.562c-6.36-3.995-15.45-1.869-19.131,4.432
		c-0.528,0.904-0.879,1.747,0.131,2.387c0.936,0.593,1.399-0.128,1.911-0.905c4.386-6.682,13.925-7.363,18.744-0.991
		c0.388,0.513,0.722,1.071,1.147,1.55c0.364,0.41,0.834,0.795,1.439,0.518C59.264,69.249,59.362,68.684,59.378,67.75z"/>
	<path fill-rule="evenodd" clip-rule="evenodd" fill="#484848" d="M27.398,40.064c-3.092-0.063-4.396-1.386-4.306-4.37
		c0.099-3.301,1.31-4.246,5.332-4.158c2.636,0.057,4.101,1.804,3.979,4.749C32.305,38.719,30.44,40.127,27.398,40.064z"/>
	<path fill-rule="evenodd" clip-rule="evenodd" fill="#484848" d="M62.242,35.808c0.012-3.336,0.952-4.283,4.23-4.26
		c3.358,0.022,4.323,1.118,4.257,4.825c-0.041,2.343-1.732,3.744-4.46,3.694C63.271,40.013,62.23,38.911,62.242,35.808z"/>
	<path fill-rule="evenodd" clip-rule="evenodd" fill="#484848" d="M59.378,67.75c-0.016,0.934-0.114,1.499-0.689,1.764
		c-0.604,0.277-1.075-0.107-1.439-0.518c-0.425-0.479-0.759-1.037-1.147-1.55c-4.819-6.372-14.358-5.69-18.744,0.991
		c-0.511,0.777-0.975,1.498-1.911,0.905c-1.01-0.64-0.659-1.482-0.131-2.387c3.682-6.301,12.771-8.427,19.131-4.432
		c1.558,0.978,3.133,1.944,4.125,3.562C58.951,66.699,59.206,67.387,59.378,67.75z"/>
</g>
</svg>
