<?xml version="1.0" encoding="utf-8"?>
<!-- Generator: Adobe Illustrator 16.0.0, SVG Export Plug-In . SVG Version: 6.00 Build 0)  -->
<!DOCTYPE svg PUBLIC "-//W3C//DTD SVG 1.1//EN" "http://www.w3.org/Graphics/SVG/1.1/DTD/svg11.dtd">
<svg version="1.1" id="Layer_1" xmlns="http://www.w3.org/2000/svg" xmlns:xlink="http://www.w3.org/1999/xlink" x="0px" y="0px"
	 width="150px" height="150px" viewBox="0 0 150 150" enable-background="new 0 0 150 150" xml:space="preserve">
<g>
	<path fill="#020202" d="M87.871,38.303c17.533-4.115,35.531,18.321,35.531,18.321c-0.635-8.766-3.707-15.878-7.08-21.195
		c-5.912-9.32-16.174-15.088-27.211-14.948c-15.281,0.194-21.69,11.258-23.777,16.14c-9.46,1.601-18.171,6.073-25.087,12.989
		c-8.802,8.803-13.649,20.513-13.649,32.975c0,25.882,20.917,46.937,46.626,46.937c12.517,0,24.286-4.807,33.134-13.535
		c8.899-8.781,13.803-20.531,13.803-33.09C120.16,62.128,106.602,44.471,87.871,38.303 M33.077,66.602
		c3.665-2.183,11.919-6.086,20.928-3.602c12.146,3.352,37.388-13.402,37.388-13.402s-2.832,17.354,21.418,14.839
		c2.643,5.521,4.16,11.668,4.246,18.147c0,23.998-19.525,43.521-43.522,43.521c-23.998,0-43.521-19.522-43.521-43.521
		C30.013,76.941,31.102,71.549,33.077,66.602"/>
	<path fill="#020202" d="M85.311,76.275h0.188c0.604,0,1.166-0.363,1.469-0.948c0.587-1.142,1.753-1.851,3.044-1.851
		c1.288,0,2.454,0.709,3.043,1.851c0.301,0.585,0.862,0.948,1.469,0.948h0.248c0.559,0,1.051-0.27,1.352-0.736
		c0.303-0.471,0.344-1.03,0.115-1.539c-1.082-2.393-3.527-3.936-6.227-3.936c-2.587,0-5.007,1.545-6.166,3.94
		c-0.236,0.489-0.205,1.038,0.088,1.505C84.232,75.991,84.748,76.275,85.311,76.275"/>
	<path fill="#020202" d="M51.822,76.275h0.413c0.604,0,1.169-0.364,1.471-0.951c0.588-1.139,1.753-1.848,3.042-1.848
		s2.455,0.709,3.042,1.848c0.303,0.587,0.866,0.951,1.472,0.951h0.186c0.574,0,1.083-0.276,1.395-0.758
		c0.312-0.479,0.355-1.054,0.123-1.574c-1.075-2.404-3.367-3.898-5.979-3.898c-0.166,0-0.335,0.006-0.503,0.018l-0.021,0.002h-0.024
		c-2.512,0-4.9,1.485-6.087,3.785c-0.27,0.521-0.248,1.133,0.057,1.633C50.709,75.98,51.239,76.275,51.822,76.275"/>
	<path fill="#020202" d="M57.124,101.777c-0.33-0.447-0.854-0.715-1.405-0.715c-0.313,0-0.62,0.086-0.89,0.252
		c-0.416,0.256-0.705,0.679-0.794,1.16c-0.088,0.477,0.024,0.947,0.317,1.328c4.614,6.016,11.494,9.465,18.872,9.465
		c7.377,0,14.256-3.449,18.871-9.465c0.291-0.381,0.404-0.853,0.316-1.328c-0.088-0.481-0.379-0.904-0.795-1.16l-0.02-0.014
		c-0.271-0.166-0.58-0.254-0.896-0.254c-0.541,0-1.062,0.262-1.386,0.698c-3.838,5.151-9.702,8.106-16.094,8.106
		C66.771,109.854,60.904,106.909,57.124,101.777"/>
</g>
</svg>
