<?xml version="1.0" encoding="utf-8"?>
<!-- Generator: Adobe Illustrator 16.0.0, SVG Export Plug-In . SVG Version: 6.00 Build 0)  -->
<!DOCTYPE svg PUBLIC "-//W3C//DTD SVG 1.1//EN" "http://www.w3.org/Graphics/SVG/1.1/DTD/svg11.dtd">
<svg version="1.1" id="Layer_1" xmlns="http://www.w3.org/2000/svg" xmlns:xlink="http://www.w3.org/1999/xlink" x="0px" y="0px"
	 width="123.406px" height="64.45px" viewBox="0 0 123.406 64.45" enable-background="new 0 0 123.406 64.45" xml:space="preserve">
<g>
	<defs>
		<path id="SVGID_1_" d="M62.233,18.048l-48.709,0.001c-0.631,0-1.229,0.277-1.636,0.758L1.706,30.839
			c-0.003,0.004-0.006,0.008-0.01,0.012c-0.017,0.021-0.033,0.044-0.05,0.066c-0.024,0.03-0.048,0.062-0.07,0.093
			c-0.017,0.024-0.031,0.05-0.047,0.074c-0.019,0.032-0.04,0.063-0.058,0.096c-0.014,0.026-0.028,0.054-0.041,0.08
			c-0.016,0.032-0.033,0.064-0.047,0.096c-0.013,0.03-0.024,0.058-0.036,0.088c-0.013,0.032-0.024,0.065-0.036,0.098
			c-0.01,0.03-0.019,0.061-0.028,0.09c-0.01,0.035-0.019,0.07-0.027,0.105c-0.007,0.029-0.013,0.058-0.019,0.088
			c-0.008,0.04-0.013,0.081-0.019,0.121c-0.003,0.025-0.007,0.051-0.01,0.077c-0.012,0.134-0.012,0.27,0,0.403
			c0.003,0.025,0.007,0.051,0.01,0.076c0.006,0.04,0.011,0.08,0.019,0.121c0.006,0.03,0.012,0.059,0.019,0.089
			c0.008,0.034,0.017,0.069,0.027,0.104c0.009,0.029,0.018,0.061,0.028,0.091c0.012,0.032,0.023,0.065,0.036,0.098
			c0.012,0.029,0.023,0.058,0.036,0.087c0.014,0.032,0.031,0.064,0.047,0.096c0.013,0.027,0.027,0.055,0.041,0.082
			c0.018,0.033,0.039,0.063,0.058,0.095c0.016,0.024,0.03,0.05,0.047,0.073c0.022,0.033,0.046,0.063,0.07,0.095
			c0.017,0.022,0.033,0.044,0.05,0.065c0.004,0.004,0.007,0.008,0.01,0.011l10.182,12.034c0.407,0.48,1.005,0.758,1.636,0.758h19.19
			c1.183,0,2.144-0.959,2.144-2.145c0-1.184-0.961-2.143-2.144-2.143H14.518l-6.552-7.745h54.335c1.185,0,2.145-0.96,2.145-2.146
			c0-1.184-0.96-2.143-2.145-2.143H7.966l6.552-7.744l49.085-0.001c0.853,0,1.622-0.505,1.964-1.285
			C70.016,10.867,80.07,4.288,91.18,4.288c15.404,0,27.938,12.532,27.938,27.936c0,15.406-12.533,27.938-27.938,27.938
			c-11.11,0-21.164-6.578-25.613-16.76c-0.342-0.781-1.111-1.287-1.964-1.287H42.378c-1.183,0-2.144,0.959-2.144,2.143
			c0,1.186,0.961,2.145,2.144,2.145l19.855,0.002C67.628,57.413,78.839,64.45,91.18,64.45c17.769,0,32.226-14.455,32.226-32.227
			C123.406,14.456,108.949,0,91.18,0C78.839,0,67.628,7.038,62.233,18.048"/>
	</defs>
	<clipPath id="SVGID_2_">
		<use xlink:href="#SVGID_1_"  overflow="visible"/>
	</clipPath>
	
		<linearGradient id="SVGID_3_" gradientUnits="userSpaceOnUse" x1="-697.6689" y1="1026.8125" x2="-696.6686" y2="1026.8125" gradientTransform="matrix(69.1362 -69.1362 -69.1362 -69.1362 119254.5391 22820.043)">
		<stop  offset="0" style="stop-color:#0CA175"/>
		<stop  offset="0.3962" style="stop-color:#19A175"/>
		<stop  offset="0.539" style="stop-color:#31A072"/>
		<stop  offset="0.6409" style="stop-color:#4A9F6D"/>
		<stop  offset="0.7233" style="stop-color:#639D66"/>
		<stop  offset="0.7939" style="stop-color:#7C9A5D"/>
		<stop  offset="0.8564" style="stop-color:#959551"/>
		<stop  offset="0.9129" style="stop-color:#B08F44"/>
		<stop  offset="0.9631" style="stop-color:#CC8733"/>
		<stop  offset="1" style="stop-color:#E37E25"/>
		<stop  offset="1" style="stop-color:#E37E25"/>
	</linearGradient>
	<polygon clip-path="url(#SVGID_2_)" fill="url(#SVGID_3_)" points="-31.029,32.226 62.301,-61.104 155.63,32.226 62.301,125.554 	
		"/>
</g>
<g>
	<defs>
		<rect id="SVGID_4_" x="-705.198" y="-290.631" width="1536" height="1999.999"/>
	</defs>
	<clipPath id="SVGID_5_">
		<use xlink:href="#SVGID_4_"  overflow="visible"/>
	</clipPath>
	<path clip-path="url(#SVGID_5_)" fill="#0CA175" d="M92.217,32.202c0,4.493,3.656,8.148,8.149,8.148s8.148-3.655,8.148-8.148
		c0-4.494-3.655-8.149-8.148-8.149S92.217,27.708,92.217,32.202 M96.506,32.202c0-2.129,1.731-3.861,3.86-3.861
		s3.86,1.732,3.86,3.861c0,2.128-1.731,3.86-3.86,3.86S96.506,34.33,96.506,32.202"/>
</g>
</svg>
