<?xml version="1.0" encoding="utf-8"?>
<!-- Generator: Adobe Illustrator 16.0.0, SVG Export Plug-In . SVG Version: 6.00 Build 0)  -->
<!DOCTYPE svg PUBLIC "-//W3C//DTD SVG 1.1//EN" "http://www.w3.org/Graphics/SVG/1.1/DTD/svg11.dtd">
<svg version="1.1" id="Layer_1" xmlns="http://www.w3.org/2000/svg" xmlns:xlink="http://www.w3.org/1999/xlink" x="0px" y="0px"
	 width="7.192px" height="7.192px" viewBox="-12.044 5.688 7.192 7.192" enable-background="new -12.044 5.688 7.192 7.192"
	 xml:space="preserve">
<g id="ARTWORK">
	<g opacity="0.7">
		<g>
			<path fill="#1E1E1E" d="M-7.531,8.79h0.014c0.047,0,0.092-0.026,0.112-0.073c0.046-0.086,0.132-0.145,0.237-0.145
				c0.1,0,0.191,0.053,0.238,0.145C-6.904,8.764-6.864,8.79-6.818,8.79h0.02c0.047,0,0.08-0.02,0.105-0.06
				c0.027-0.033,0.027-0.079,0.008-0.119c-0.086-0.185-0.271-0.304-0.482-0.304c-0.197,0-0.383,0.119-0.475,0.304
				c-0.02,0.04-0.014,0.079,0.006,0.119C-7.616,8.77-7.57,8.79-7.531,8.79z"/>
		</g>
		<g>
			<path fill="#1E1E1E" d="M-10.111,8.79h0.033c0.046,0,0.092-0.026,0.112-0.073c0.046-0.086,0.132-0.145,0.237-0.145
				c0.099,0,0.191,0.053,0.238,0.145C-9.464,8.764-9.424,8.79-9.378,8.79h0.013c0.046,0,0.086-0.02,0.106-0.06
				c0.026-0.04,0.026-0.079,0.006-0.119C-9.339,8.427-9.51,8.308-9.715,8.308c-0.013,0-0.026,0-0.04,0l0,0l0,0
				c-0.191,0-0.376,0.112-0.468,0.291c-0.02,0.04-0.02,0.086,0.006,0.125C-10.196,8.764-10.157,8.79-10.111,8.79z"/>
		</g>
		<g>
			<path fill="#1E1E1E" d="M-9.702,10.757c-0.026-0.033-0.066-0.053-0.105-0.053c-0.026,0-0.046,0.006-0.066,0.02
				c-0.033,0.02-0.053,0.053-0.06,0.092c-0.006,0.04,0,0.071,0.026,0.104c0.356,0.463,0.884,0.732,1.458,0.732
				c0.567,0,1.103-0.264,1.458-0.732c0.021-0.025,0.033-0.064,0.027-0.104c-0.007-0.039-0.027-0.072-0.06-0.092l0,0
				c-0.021-0.014-0.046-0.02-0.065-0.02c-0.04,0-0.08,0.02-0.106,0.053c-0.297,0.396-0.745,0.626-1.24,0.626
				C-8.962,11.375-9.411,11.152-9.702,10.757z"/>
		</g>
		<g>
			<path fill="#1E1E1E" d="M-8.448,12.881c-1.979,0-3.596-1.611-3.596-3.596c0-1.986,1.61-3.596,3.596-3.596
				c1.986,0,3.597,1.61,3.597,3.596C-4.852,11.27-6.469,12.881-8.448,12.881z M-8.448,5.959c-1.834,0-3.332,1.491-3.332,3.333
				c0,1.839,1.491,3.332,3.332,3.332s3.333-1.492,3.333-3.332C-5.115,7.45-6.613,5.959-8.448,5.959z"/>
		</g>
	</g>
</g>
<g id="Layer_3">
</g>
<g id="Layer_4">
</g>
<g id="Layer_5">
</g>
<g id="Layer_6">
</g>
<g id="Layer_7">
</g>
<g id="Layer_8">
</g>
<g id="Layer_9">
</g>
<g id="Layer_11">
</g>
<g id="Layer_13">
</g>
<g id="Layer_14">
</g>
<g id="Layer_10">
</g>
<g id="Layer_12">
</g>
<g id="Layer_15">
</g>
<g id="GRIDS" display="none">
</g>
</svg>
