<?xml version="1.0" encoding="utf-8"?>
<!-- Generator: Adobe Illustrator 16.0.0, SVG Export Plug-In . SVG Version: 6.00 Build 0)  -->
<!DOCTYPE svg PUBLIC "-//W3C//DTD SVG 1.1//EN" "http://www.w3.org/Graphics/SVG/1.1/DTD/svg11.dtd">
<svg version="1.1" id="Layer_1" xmlns="http://www.w3.org/2000/svg" xmlns:xlink="http://www.w3.org/1999/xlink" x="0px" y="0px"
	 width="504px" height="182px" viewBox="0 0 504 182" enable-background="new 0 0 504 182" xml:space="preserve">
<g>
	<defs>
		<rect id="SVGID_1_" width="504" height="182"/>
	</defs>
	<clipPath id="SVGID_2_">
		<use xlink:href="#SVGID_1_"  overflow="visible"/>
	</clipPath>
	<path clip-path="url(#SVGID_2_)" fill="#FFFFFF" d="M139.572,57.464c0,14.168,0.042,26.955-0.018,39.74
		c-0.03,6.262-3.689,10.019-9.262,9.758c-4.879-0.228-8.086-3.738-8.22-9.48c-0.162-6.919-0.043-13.844-0.044-20.767
		c-0.001-12.49,0.068-24.981-0.036-37.471c-0.039-4.708,0.881-8.792,5.699-10.711c4.886-1.945,10.479-0.223,14.062,4.356
		c10.194,13.03,20.292,26.134,30.429,39.207c0.7,0.903,1.408,1.8,2.88,3.68V47.275c0-2.86-0.009-5.719,0.002-8.578
		c0.027-6.764,3.299-10.914,8.633-10.961c5.624-0.05,8.888,3.988,8.903,11.126c0.025,11.889,0.007,23.777,0.007,35.664
		c0,6.923,0.014,13.845-0.004,20.767c-0.017,6.44-1.652,9.449-5.91,10.994c-4.503,1.634-8.922,0.248-12.656-4.476
		c-7.927-10.028-15.683-20.19-23.517-30.292C147.145,67.168,143.753,62.83,139.572,57.464"/>
	<path clip-path="url(#SVGID_2_)" fill="#FFFFFF" d="M70.663,108.235c-17.898,0.03-34.027-11.1-40.059-27.643
		c-6.242-17.12-1.161-36.027,12.831-47.744c4.995-4.182,10.366-4.198,13.982-0.039c3.523,4.05,2.589,9.404-2.386,13.677
		c-8.337,7.159-11.306,17.394-7.888,27.185c3.362,9.628,12.41,16.431,22.418,16.855c10.01,0.424,19.541-5.595,23.706-14.97
		c4.473-10.07,1.828-21.097-7.012-28.933c-1.926-1.707-3.988-3.272-4.384-6.037c-0.58-4.046,0.341-7.561,4.137-9.664
		c4.043-2.243,7.738-1.263,11.239,1.504c24.409,19.293,19.903,58.313-8.303,71.701C83.009,106.943,77.312,108.224,70.663,108.235"/>
	<path clip-path="url(#SVGID_2_)" fill="#FFFFFF" d="M356.19,98.368c-0.646,4.295-2.934,7.06-6.585,8.222
		c-4.1,1.307-7.504-0.406-9.515-4.094c-1.861-3.412-3.354-7.042-4.8-10.659c-0.826-2.068-1.881-3.021-4.283-2.984
		c-9.477,0.147-18.957,0.136-28.434,0.007c-2.335-0.031-3.521,0.756-4.328,2.907c-1.21,3.227-2.66,6.369-4.126,9.492
		c-2.43,5.177-7.222,7.131-11.818,4.919c-4.362-2.099-5.717-6.35-3.405-11.506c8.964-19.994,18.023-39.944,26.99-59.936
		c2.19-4.882,5.666-7.58,11.152-7.557c5.487,0.023,8.873,2.766,11.058,7.662c8.863,19.874,17.847,39.696,26.754,59.551
		C355.457,95.743,355.806,97.211,356.19,98.368 M327.358,73.525c-3.56-8.383-6.896-16.243-10.599-24.961
		c-2.908,6.726-5.396,12.471-7.875,18.22c-0.594,1.378-1.105,2.791-1.737,4.15c-0.936,2.01-0.249,2.646,1.848,2.617
		C314.707,73.476,320.422,73.525,327.358,73.525"/>
	<path clip-path="url(#SVGID_2_)" fill="#FFFFFF" d="M242.747,107.729c-23.064-0.072-40.591-17.215-40.733-39.84
		c-0.144-22.987,17.151-40.406,40.337-40.735c9.049-0.128,17.625,1.371,25.356,6.387c5.475,3.552,7.104,8.495,4.18,12.843
		c-2.955,4.393-8.158,5.044-13.485,1.69c-15.425-9.717-32.419-4.172-36.943,12.052c-2.874,10.304,0.79,21.659,8.858,27.452
		c7.963,5.718,19.267,5.391,28.281-0.82c0.865-0.595,1.684-1.273,2.593-1.791c4.022-2.288,8.809-1.308,11.218,2.252
		c2.382,3.52,1.69,7.758-1.773,10.88C263.717,104.331,253.775,107.764,242.747,107.729"/>
	<path clip-path="url(#SVGID_2_)" fill="#FFFFFF" d="M423.694,67.44c-0.001-9.918-0.068-19.837,0.025-29.754
		c0.055-5.872,2.813-9.201,7.8-9.851c5.753-0.751,9.831,3.081,9.848,9.428c0.041,16.38,0.111,32.76-0.068,49.138
		c-0.035,3.307,0.692,4.37,4.153,4.235c7.503-0.294,15.024-0.131,22.537-0.077c5.548,0.04,9.187,3.09,9.351,7.681
		c0.171,4.773-3.49,8.118-9.304,8.161c-11.721,0.086-23.442,0.101-35.163-0.006c-6.164-0.055-9.086-3.012-9.15-9.201
		C423.618,87.278,423.694,77.358,423.694,67.44"/>
	<path clip-path="url(#SVGID_2_)" fill="#FFFFFF" d="M381.627,62.436c0,7.97,0.157,15.944-0.076,23.907
		c-0.095,3.25,0.585,4.446,4.127,4.297c7.355-0.309,14.732-0.126,22.101-0.083c6.055,0.035,9.366,2.877,9.363,7.913
		c-0.003,5.043-3.243,7.895-9.374,7.936c-11.277,0.075-22.557,0.109-33.834-0.012c-7.027-0.075-10.089-3.326-10.098-10.376
		c-0.023-19.398-0.021-38.797-0.001-58.195c0.007-6.266,3.492-10.131,8.974-10.08c5.244,0.049,8.722,3.832,8.793,9.881
		C381.7,45.894,381.626,54.165,381.627,62.436"/>
	<path clip-path="url(#SVGID_2_)" fill="#FFFFFF" d="M77.251,41.624c0,4.35,0.057,8.7-0.016,13.049
		c-0.074,4.522-2.73,7.58-6.517,7.682c-3.734,0.101-6.688-3.037-6.725-7.441c-0.075-8.999-0.077-17.999,0-26.998
		c0.039-4.608,2.718-7.425,6.706-7.369c3.912,0.056,6.458,2.932,6.535,7.578C77.311,32.623,77.251,37.124,77.251,41.624"/>
	<path clip-path="url(#SVGID_2_)" fill="#FFFFFF" d="M27.231,146.38v-0.084c0-8.378,6.525-15.24,15.45-15.24
		c4.463,0,7.409,1.012,10.062,2.863c0.631,0.463,1.347,1.347,1.347,2.609c0,1.769-1.431,3.2-3.199,3.2
		c-0.927,0-1.516-0.337-1.979-0.674c-1.768-1.263-3.663-2.021-6.441-2.021c-4.716,0-8.462,4.167-8.462,9.177v0.085
		c0,5.389,3.704,9.346,8.925,9.346c2.357,0,4.462-0.59,6.104-1.769v-4.21H44.66c-1.558,0-2.821-1.22-2.821-2.778
		c0-1.558,1.263-2.819,2.821-2.819h7.409c1.81,0,3.242,1.431,3.242,3.24v7.157c0,1.896-0.716,3.199-2.273,4.126
		c-2.4,1.473-5.894,2.946-10.315,2.946C33.545,161.535,27.231,155.095,27.231,146.38"/>
	<path clip-path="url(#SVGID_2_)" fill="#FFFFFF" d="M63.643,134.803c0-1.811,1.432-3.241,3.242-3.241h10.23
		c3.747,0,6.652,1.052,8.588,2.988c1.642,1.642,2.526,3.957,2.526,6.736v0.084c0,4.631-2.315,7.493-5.893,8.967l4.504,5.474
		c0.631,0.8,1.052,1.473,1.052,2.483c0,1.811-1.515,2.989-3.073,2.989c-1.473,0-2.441-0.716-3.199-1.685l-6.315-7.998h-5.178v6.44
		c0,1.812-1.432,3.242-3.242,3.242s-3.242-1.431-3.242-3.242V134.803z M76.693,145.875c3.158,0,4.968-1.685,4.968-4.168v-0.084
		c0-2.779-1.937-4.21-5.094-4.21h-6.441v8.462H76.693z"/>
	<path clip-path="url(#SVGID_2_)" fill="#FFFFFF" d="M94.877,146.38v-0.084c0-8.378,6.609-15.24,15.702-15.24
		c9.093,0,15.619,6.778,15.619,15.155v0.085c0,8.377-6.61,15.239-15.703,15.239C101.402,161.535,94.877,154.758,94.877,146.38
		 M119.42,146.38v-0.084c0-5.052-3.705-9.262-8.925-9.262c-5.22,0-8.841,4.125-8.841,9.177v0.085c0,5.052,3.705,9.262,8.925,9.262
		C115.799,155.558,119.42,151.432,119.42,146.38"/>
	<path clip-path="url(#SVGID_2_)" fill="#FFFFFF" d="M133.603,148.4V134.55c0-1.81,1.431-3.241,3.242-3.241
		c1.81,0,3.241,1.432,3.241,3.241v13.683c0,4.799,2.4,7.283,6.357,7.283s6.357-2.4,6.357-7.073V134.55
		c0-1.81,1.431-3.241,3.242-3.241c1.81,0,3.241,1.432,3.241,3.241v13.641c0,8.925-5.01,13.303-12.924,13.303
		C138.444,161.493,133.603,157.073,133.603,148.4"/>
	<path clip-path="url(#SVGID_2_)" fill="#FFFFFF" d="M167.994,134.803c0-1.811,1.432-3.242,3.242-3.242h8.799
		c7.03,0,11.283,4.168,11.283,10.188v0.084c0,6.82-5.305,10.357-11.914,10.357h-4.926v5.851c0,1.811-1.431,3.242-3.242,3.242
		c-1.81,0-3.242-1.432-3.242-3.242V134.803z M179.614,146.422c3.242,0,5.136-1.937,5.136-4.463v-0.084
		c0-2.904-2.021-4.462-5.262-4.462h-5.01v9.009H179.614z"/>
	<path clip-path="url(#SVGID_2_)" fill="#FFFFFF" d="M211.309,156.862l10.272-23.196c0.716-1.6,2.021-2.568,3.789-2.568h0.379
		c1.768,0,3.031,0.969,3.747,2.568l10.272,23.196c0.21,0.463,0.336,0.884,0.336,1.306c0,1.726-1.347,3.115-3.073,3.115
		c-1.515,0-2.526-0.885-3.115-2.231l-1.979-4.63h-12.966l-2.063,4.84c-0.547,1.264-1.642,2.021-2.989,2.021
		c-1.684,0-2.989-1.348-2.989-3.031C210.93,157.789,211.099,157.325,211.309,156.862 M229.538,148.695l-4.084-9.725l-4.083,9.725
		H229.538z"/>
	<path clip-path="url(#SVGID_2_)" fill="#FFFFFF" d="M246.205,148.4V134.55c0-1.81,1.431-3.241,3.242-3.241
		c1.81,0,3.241,1.432,3.241,3.241v13.683c0,4.799,2.399,7.283,6.356,7.283c3.958,0,6.357-2.4,6.357-7.073V134.55
		c0-1.81,1.432-3.241,3.24-3.241c1.812,0,3.243,1.432,3.243,3.241v13.641c0,8.925-5.01,13.303-12.925,13.303
		S246.205,157.073,246.205,148.4"/>
	<path clip-path="url(#SVGID_2_)" fill="#FFFFFF" d="M280.007,157.915c-0.716-0.505-1.222-1.432-1.222-2.44
		c0-1.686,1.348-2.99,3.031-2.99c0.843,0,1.432,0.295,1.853,0.589c2.231,1.643,4.673,2.653,7.536,2.653
		c2.652,0,4.252-1.054,4.252-2.779v-0.084c0-1.641-1.012-2.484-5.937-3.747c-5.936-1.515-9.767-3.157-9.767-9.009v-0.085
		c0-5.346,4.294-8.882,10.314-8.882c3.578,0,6.693,0.926,9.346,2.609c0.716,0.421,1.432,1.307,1.432,2.568
		c0,1.684-1.348,2.99-3.031,2.99c-0.632,0-1.137-0.169-1.642-0.465c-2.147-1.263-4.168-1.979-6.188-1.979
		c-2.484,0-3.79,1.137-3.79,2.569v0.084c0,1.936,1.264,2.567,6.357,3.873c5.978,1.557,9.347,3.705,9.347,8.84v0.084
		c0,5.853-4.463,9.136-10.82,9.136C287.205,161.451,283.29,160.272,280.007,157.915"/>
	<path clip-path="url(#SVGID_2_)" fill="#FFFFFF" d="M315.872,137.539h-6.229c-1.643,0-2.99-1.348-2.99-2.989
		s1.348-2.989,2.99-2.989h18.943c1.642,0,2.989,1.348,2.989,2.989s-1.348,2.989-2.989,2.989h-6.23v20.502
		c0,1.811-1.432,3.242-3.242,3.242c-1.81,0-3.241-1.432-3.241-3.242V137.539z"/>
	<path clip-path="url(#SVGID_2_)" fill="#FFFFFF" d="M338.392,134.803c0-1.811,1.432-3.241,3.242-3.241h10.229
		c3.747,0,6.651,1.052,8.588,2.988c1.643,1.642,2.526,3.957,2.526,6.736v0.084c0,4.631-2.315,7.493-5.894,8.967l4.505,5.474
		c0.631,0.8,1.052,1.473,1.052,2.483c0,1.811-1.516,2.989-3.073,2.989c-1.474,0-2.441-0.716-3.199-1.685l-6.315-7.998h-5.178v6.44
		c0,1.812-1.432,3.242-3.241,3.242c-1.811,0-3.242-1.431-3.242-3.242V134.803z M351.442,145.875c3.157,0,4.968-1.685,4.968-4.168
		v-0.084c0-2.779-1.937-4.21-5.094-4.21h-6.441v8.462H351.442z"/>
	<path clip-path="url(#SVGID_2_)" fill="#FFFFFF" d="M369.289,156.862l10.272-23.196c0.715-1.6,2.021-2.568,3.788-2.568h0.379
		c1.768,0,3.031,0.969,3.747,2.568l10.272,23.196c0.21,0.463,0.337,0.884,0.337,1.306c0,1.726-1.348,3.115-3.073,3.115
		c-1.516,0-2.526-0.885-3.115-2.231l-1.979-4.63h-12.967l-2.063,4.84c-0.547,1.264-1.642,2.021-2.988,2.021
		c-1.685,0-2.989-1.348-2.989-3.031C368.91,157.789,369.078,157.325,369.289,156.862 M387.518,148.695l-4.083-9.725l-4.084,9.725
		H387.518z"/>
	<path clip-path="url(#SVGID_2_)" fill="#FFFFFF" d="M405.279,134.55c0-1.81,1.432-3.241,3.242-3.241
		c1.81,0,3.241,1.432,3.241,3.241v20.587h11.998c1.642,0,2.947,1.306,2.947,2.946c0,1.643-1.306,2.947-2.947,2.947h-15.239
		c-1.811,0-3.242-1.432-3.242-3.241V134.55z"/>
	<path clip-path="url(#SVGID_2_)" fill="#FFFFFF" d="M433.734,134.55c0-1.81,1.432-3.241,3.241-3.241
		c1.811,0,3.242,1.432,3.242,3.241v23.491c0,1.811-1.432,3.242-3.242,3.242c-1.81,0-3.241-1.432-3.241-3.242V134.55z"/>
	<path clip-path="url(#SVGID_2_)" fill="#FFFFFF" d="M448.045,156.862l10.273-23.196c0.715-1.6,2.021-2.568,3.788-2.568h0.379
		c1.768,0,3.031,0.969,3.747,2.568l10.271,23.196c0.211,0.463,0.338,0.884,0.338,1.306c0,1.726-1.348,3.115-3.073,3.115
		c-1.516,0-2.526-0.885-3.115-2.231l-1.979-4.63h-12.967l-2.063,4.84c-0.547,1.264-1.642,2.021-2.988,2.021
		c-1.685,0-2.989-1.348-2.989-3.031C447.667,157.789,447.835,157.325,448.045,156.862 M466.274,148.695l-4.083-9.725l-4.084,9.725
		H466.274z"/>
</g>
</svg>
