<?xml version="1.0" encoding="utf-8"?>
<!-- Generator: Adobe Illustrator 16.0.0, SVG Export Plug-In . SVG Version: 6.00 Build 0)  -->
<!DOCTYPE svg PUBLIC "-//W3C//DTD SVG 1.1//EN" "http://www.w3.org/Graphics/SVG/1.1/DTD/svg11.dtd">
<svg version="1.1" id="Layer_1" xmlns="http://www.w3.org/2000/svg" xmlns:xlink="http://www.w3.org/1999/xlink" x="0px" y="0px"
	 width="95.108px" height="94.536px" viewBox="0 0 95.108 94.536" enable-background="new 0 0 95.108 94.536" xml:space="preserve">
<g>
	<path fill-rule="evenodd" clip-rule="evenodd" fill="#484848" d="M47.571,0.03c27.546-0.626,47.791,21.726,47.535,47.539
		c-0.26,26.123-20.577,46.129-46.093,46.943C21.025,95.404-0.011,72.652,0,47.069C0.01,22.021,20.554-0.942,47.571,0.03z
		 M47.824,3.203C23.009,3.219,3.521,22.843,3.538,47.34C3.554,71.117,22.991,91.283,47.988,91.15
		c23.75-0.125,43.485-20.188,43.504-43.814C91.513,23.042,71.729,3.182,47.824,3.203z"/>
	<path fill-rule="evenodd" clip-rule="evenodd" fill="#93CC95" d="M47.824,3.203c23.905-0.021,43.689,19.839,43.669,44.133
		c-0.02,23.627-19.755,43.689-43.504,43.814C22.991,91.283,3.554,71.117,3.538,47.34C3.521,22.843,23.009,3.219,47.824,3.203z
		 M47.539,70.488c5.406-0.008,8.463-1.553,11.994-6.105c0.802-1.033,1.776-2.355,0.53-3.408c-1.436-1.211-2.351,0.064-3.271,1.26
		c-3.565,4.621-9.353,6.582-14.921,3.354c-1.701-0.988-2.678-2.506-3.765-3.967c-0.664-0.891-1.435-1.193-2.387-0.822
		c-1.15,0.453-0.905,1.41-0.685,2.359c0.195,0.838,0.57,1.531,1.148,2.168C39.229,68.684,42.814,70.832,47.539,70.488z
		 M28.032,31.882c-2.803,0.037-4.238,1.533-4.157,4.333c0.074,2.591,1.746,4.168,4.458,4.208c2.43,0.035,4.154-1.832,4.174-4.522
		C32.528,33.286,30.923,31.846,28.032,31.882z M71.939,36.158c0.035-2.485-2.114-4.559-4.842-4.666
		c-2.815-0.111-5.091,1.928-5.183,4.645c-0.089,2.633,2.207,4.816,5.05,4.798C69.898,40.917,71.898,38.998,71.939,36.158z"/>
	<path fill-rule="evenodd" clip-rule="evenodd" fill="#484848" d="M47.54,70.486c-4.726,0.346-8.31-1.803-11.357-5.16
		c-0.578-0.637-0.953-1.33-1.148-2.168c-0.221-0.949-0.465-1.906,0.685-2.359c0.952-0.371,1.723-0.068,2.387,0.822
		c1.087,1.461,2.064,2.979,3.765,3.967c5.569,3.229,11.356,1.268,14.921-3.354c0.921-1.195,1.836-2.471,3.271-1.26
		c1.246,1.053,0.271,2.375-0.53,3.408C56.002,68.936,52.945,70.48,47.54,70.486z"/>
	<path fill-rule="evenodd" clip-rule="evenodd" fill="#484848" d="M28.032,31.882c2.891-0.037,4.496,1.404,4.476,4.02
		c-0.021,2.69-1.744,4.557-4.174,4.522c-2.713-0.04-4.384-1.617-4.458-4.208C23.794,33.415,25.229,31.919,28.032,31.882z"/>
	<path fill-rule="evenodd" clip-rule="evenodd" fill="#484848" d="M67.097,31.492c-2.815-0.111-5.091,1.928-5.183,4.645
		c-0.089,2.633,2.207,4.816,5.05,4.798c2.934-0.018,4.934-1.937,4.975-4.777C71.974,33.672,69.825,31.599,67.097,31.492z"/>
</g>
</svg>
