<?xml version="1.0" encoding="utf-8"?>
<!-- Generator: Adobe Illustrator 16.0.0, SVG Export Plug-In . SVG Version: 6.00 Build 0)  -->
<!DOCTYPE svg PUBLIC "-//W3C//DTD SVG 1.1//EN" "http://www.w3.org/Graphics/SVG/1.1/DTD/svg11.dtd">
<svg version="1.1" id="Layer_1" xmlns="http://www.w3.org/2000/svg" xmlns:xlink="http://www.w3.org/1999/xlink" x="0px" y="0px"
	 width="95.108px" height="94.536px" viewBox="0 0 95.108 94.536" enable-background="new 0 0 95.108 94.536" xml:space="preserve">
<g opacity="0.5">
	<path fill-rule="evenodd" clip-rule="evenodd" fill="#484848" d="M47.57-0.263c27.546-0.626,47.791,21.726,47.535,47.538
		c-0.26,26.123-20.577,46.129-46.093,46.943C21.025,95.111-0.011,72.359,0,46.776C0.01,21.728,20.553-1.235,47.57-0.263z
		 M47.823,2.911C23.009,2.926,3.521,22.55,3.537,47.047C3.553,70.824,22.99,90.99,47.988,90.857
		c23.75-0.125,43.485-20.188,43.504-43.814C91.513,22.75,71.729,2.89,47.823,2.911z"/>
	<path fill-rule="evenodd" clip-rule="evenodd" fill="#93CC95" d="M47.823,2.911C71.729,2.89,91.513,22.75,91.492,47.043
		c-0.02,23.627-19.755,43.689-43.504,43.814C22.99,90.99,3.553,70.824,3.537,47.047C3.521,22.55,23.009,2.926,47.823,2.911z
		 M47.539,70.195c5.406-0.008,8.463-1.553,11.994-6.105c0.802-1.033,1.776-2.355,0.53-3.408c-1.436-1.211-2.351,0.064-3.271,1.26
		c-3.565,4.621-9.353,6.582-14.921,3.354c-1.701-0.988-2.678-2.506-3.765-3.967c-0.664-0.891-1.435-1.193-2.387-0.822
		c-1.15,0.453-0.905,1.41-0.685,2.359c0.195,0.838,0.57,1.531,1.148,2.168C39.229,68.391,42.813,70.539,47.539,70.195z
		 M28.032,31.59c-2.803,0.037-4.238,1.533-4.157,4.333c0.074,2.591,1.746,4.167,4.458,4.208c2.43,0.035,4.154-1.832,4.174-4.521
		C32.527,32.994,30.923,31.553,28.032,31.59z M71.938,35.865c0.035-2.485-2.114-4.559-4.842-4.666
		c-2.815-0.111-5.091,1.928-5.183,4.645c-0.089,2.633,2.207,4.816,5.05,4.797C69.897,40.624,71.897,38.705,71.938,35.865z"/>
	<path fill-rule="evenodd" clip-rule="evenodd" fill="#484848" d="M47.539,70.193c-4.726,0.346-8.31-1.803-11.357-5.16
		c-0.578-0.637-0.953-1.33-1.148-2.168c-0.221-0.949-0.465-1.906,0.685-2.359c0.952-0.371,1.723-0.068,2.387,0.822
		c1.087,1.461,2.064,2.979,3.765,3.967c5.569,3.229,11.356,1.268,14.921-3.354c0.921-1.195,1.836-2.471,3.271-1.26
		c1.246,1.053,0.271,2.375-0.53,3.408C56.002,68.643,52.944,70.188,47.539,70.193z"/>
	<path fill-rule="evenodd" clip-rule="evenodd" fill="#484848" d="M28.032,31.59c2.891-0.037,4.496,1.404,4.476,4.02
		c-0.021,2.69-1.744,4.557-4.174,4.521c-2.713-0.04-4.384-1.617-4.458-4.208C23.794,33.123,25.229,31.626,28.032,31.59z"/>
	<path fill-rule="evenodd" clip-rule="evenodd" fill="#484848" d="M67.097,31.2c-2.815-0.111-5.091,1.928-5.183,4.645
		c-0.089,2.633,2.207,4.816,5.05,4.797c2.934-0.018,4.934-1.937,4.975-4.776C71.974,33.38,69.824,31.307,67.097,31.2z"/>
</g>
<g>
	<path fill-rule="evenodd" clip-rule="evenodd" fill="#484848" d="M0,46.35C0.491,20.206,21.059,0.901,44.974-0.232
		c29.853-1.415,50.541,22.427,50.127,47.796c-0.411,25.154-20.453,46.982-48.338,46.678C20.881,93.957-0.13,72.985,0,46.35z
		 M47.609,2.888C22.895,2.72,3.126,22.79,3.146,47.011c0.02,23.997,19.405,43.333,42.993,43.932
		c26.786,0.681,44.447-20.273,45.588-41.513C93.164,22.708,71.736,2.821,47.609,2.888z"/>
	<path fill-rule="evenodd" clip-rule="evenodd" fill="#E4912F" d="M47.609,2.888c24.126-0.067,45.554,19.82,44.118,46.542
		c-1.141,21.239-18.802,42.193-45.588,41.513C22.552,90.344,3.166,71.008,3.146,47.011C3.126,22.79,22.895,2.72,47.609,2.888z
		 M38.609,63.446c0.002-0.078,0.004-0.154,0.005-0.231c-1.473,0.093-2.947,0.18-4.419,0.277c-0.999,0.063-1.476,0.629-1.559,1.597
		c-0.084,0.984,0.319,1.547,1.307,1.78c1.771,0.418,3.444,1.035,5.374,0.921c5.033-0.3,10.086-0.503,15.124-0.393
		c1.932,0.041,3.765,0.337,5.666-0.364c1.016-0.375,2.296-0.11,2.141-1.814c-0.151-1.662-1.267-1.784-2.569-1.78
		C52.655,63.452,45.631,63.446,38.609,63.446z M66.96,31.287c-3.066-0.312-4.504,1.919-4.757,4.806
		c-0.207,2.368,2.129,4.59,4.511,4.658c2.617,0.075,4.866-2.159,4.923-4.885C71.694,33.071,69.873,31.287,66.96,31.287z
		 M23.576,35.839c-0.004,2.624,1.895,4.863,4.141,4.887c2.463,0.025,5.417-2.79,5.333-5.085c-0.089-2.452-2.362-4.362-5.156-4.333
		C25.06,31.337,23.579,32.891,23.576,35.839z"/>
	<path fill-rule="evenodd" clip-rule="evenodd" fill="#484848" d="M38.609,63.446c7.022,0,14.046,0.006,21.07-0.008
		c1.302-0.004,2.418,0.118,2.569,1.78c0.155,1.704-1.125,1.439-2.141,1.814c-1.901,0.701-3.734,0.405-5.666,0.364
		c-5.038-0.11-10.091,0.093-15.124,0.393c-1.93,0.114-3.603-0.503-5.374-0.921c-0.988-0.233-1.392-0.796-1.307-1.78
		c0.083-0.968,0.56-1.533,1.559-1.597c1.472-0.098,2.947-0.185,4.419-0.277C38.613,63.292,38.611,63.368,38.609,63.446z"/>
	<path fill-rule="evenodd" clip-rule="evenodd" fill="#484848" d="M66.96,31.287c2.913,0,4.733,1.784,4.677,4.579
		c-0.057,2.726-2.306,4.96-4.923,4.885c-2.382-0.068-4.718-2.29-4.511-4.658C62.456,33.206,63.894,30.975,66.96,31.287z"/>
	<path fill-rule="evenodd" clip-rule="evenodd" fill="#484848" d="M23.576,35.839c0.003-2.948,1.483-4.501,4.319-4.532
		c2.793-0.029,5.066,1.882,5.156,4.333c0.084,2.295-2.87,5.111-5.333,5.085C25.471,40.702,23.572,38.463,23.576,35.839z"/>
</g>
</svg>
